<svg width="88" height="19" viewBox="0 0 88 19" fill="none" xmlns="http://www.w3.org/2000/svg">
<path d="M11.1136 15.3127V18.682H0V0.25144H3.41958V15.3127H11.1136Z" fill="#303446"/>
<path d="M28.0325 15.4133V18.682H17.0446V0.25144H28.0325V3.52016H20.4642V8.47352H26.7753V11.5914H20.4642V15.4133H28.0325Z" fill="#303446"/>
<path d="M41.2027 0H41.429L50.3552 18.506L50.2294 18.682H46.7093L45.4018 15.6898H37.1546L35.8471 18.682H32.4024L32.2766 18.506L41.2027 0ZM41.2782 6.31114L38.5375 12.572H44.0189L41.2782 6.31114Z" fill="#303446"/>
<path d="M61.0173 18.682H55.5611V0.25144H61.998C64.6967 0.25144 66.8926 1.0309 68.5857 2.58983C70.2787 4.14876 71.1252 6.30276 71.1252 9.05183C71.1252 12.1697 70.1949 14.5584 68.3342 16.2179C66.4903 17.8606 64.0514 18.682 61.0173 18.682ZM61.5957 3.62073H58.9807V15.3127H60.7659C65.3589 15.3127 67.6553 13.2676 67.6553 9.17755C67.6553 7.35042 67.1273 5.9675 66.0713 5.02879C65.032 4.09009 63.5401 3.62073 61.5957 3.62073Z" fill="#303446"/>
<path d="M76.2829 5.07908C76.2829 3.52016 76.8109 2.2881 77.867 1.38292C78.923 0.460973 80.2808 0 81.9403 0C84.1865 0 86.0052 0.829751 87.3965 2.48925L84.9324 4.85279C83.9267 3.8135 82.8958 3.29386 81.8397 3.29386C81.2363 3.29386 80.7334 3.45311 80.3311 3.7716C79.9288 4.07332 79.7276 4.50077 79.7276 5.05394C79.7276 5.23833 79.7612 5.41434 79.8282 5.58196C79.8953 5.74959 80.0126 5.91722 80.1802 6.08484C80.3478 6.25247 80.4987 6.40333 80.6328 6.53743C80.7837 6.65477 81.0184 6.80564 81.3368 6.99003C81.6553 7.17441 81.9068 7.3169 82.0912 7.41747C82.2923 7.51805 82.6024 7.68568 83.0215 7.92035C83.4573 8.13827 83.7926 8.30589 84.0272 8.42323C86.6758 9.8313 88 11.5914 88 13.7035C88 15.2121 87.4636 16.4609 86.3908 17.4499C85.318 18.4389 83.8848 18.9334 82.0912 18.9334C80.6831 18.9334 79.4175 18.6568 78.2944 18.1037C77.1713 17.5337 76.2578 16.8046 75.5537 15.9161L78.043 13.5023C79.2331 14.9104 80.5993 15.6144 82.1414 15.6144C82.8455 15.6144 83.4238 15.43 83.8764 15.0612C84.329 14.6757 84.5553 14.2063 84.5553 13.6532C84.5553 13.2006 84.3206 12.748 83.8512 12.2954C83.3987 11.8428 82.9461 11.4992 82.4935 11.2645C82.0576 11.0131 81.3955 10.661 80.5071 10.2085C77.691 8.81715 76.2829 7.10736 76.2829 5.07908Z" fill="#303446"/>
</svg>
