<svg width="21" height="25" viewBox="0 0 21 25" fill="none" xmlns="http://www.w3.org/2000/svg">
<path d="M19.6826 16.0117C19.0146 15.2734 17.7139 14.1836 17.7139 10.5625C17.7139 7.85547 15.8154 5.67578 13.249 5.11328V4.375C13.249 3.77734 12.7217 3.25 12.124 3.25C11.4912 3.25 10.999 3.77734 10.999 4.375V5.11328C8.39746 5.67578 6.49902 7.85547 6.49902 10.5625C6.49902 14.1836 5.19824 15.2734 4.53027 16.0117C4.31934 16.2227 4.24902 16.5039 4.24902 16.75C4.24902 17.3477 4.70605 17.875 5.37402 17.875H18.8389C19.542 17.875 19.9639 17.3477 19.999 16.75C19.999 16.5039 19.8936 16.2227 19.6826 16.0117ZM6.60449 16.1875C7.34277 15.2031 8.18652 13.5859 8.18652 10.5977V10.5625C8.18652 8.41797 9.94434 6.625 12.124 6.625C14.2686 6.625 16.0615 8.41797 16.0615 10.5625V10.5977C16.0615 13.5859 16.8701 15.2031 17.6084 16.1875H6.60449ZM12.0889 21.25C13.3545 21.25 14.374 20.2656 14.374 19H9.87402C9.87402 20.2656 10.8584 21.25 12.0889 21.25Z" fill="#595D6F"/>
<circle cx="5.24902" cy="5" r="4" fill="#F16670" stroke="white" stroke-width="2"/>
</svg>
