<svg width="23" height="25" viewBox="0 0 23 25" fill="none" xmlns="http://www.w3.org/2000/svg">
<path d="M19.999 5.5H6.49902C5.2334 5.5 4.24902 6.51953 4.24902 7.75V16.75C4.24902 18.0156 5.2334 19 6.49902 19H19.999C21.2295 19 22.249 18.0156 22.249 16.75V7.75C22.249 6.51953 21.2295 5.5 19.999 5.5ZM6.49902 7.1875H19.999C20.2803 7.1875 20.5615 7.46875 20.5615 7.75V8.55859L14.6904 13.4102C13.8818 14.0781 12.5811 14.0781 11.7725 13.4102L5.93652 8.55859V7.75C5.93652 7.46875 6.18262 7.1875 6.49902 7.1875ZM19.999 17.3125H6.49902C6.18262 17.3125 5.93652 17.0664 5.93652 16.75V10.7383L10.7178 14.7461C11.4209 15.3086 12.2998 15.625 13.249 15.625C14.1631 15.625 15.042 15.3086 15.7451 14.7461L20.5615 10.7383V16.75C20.5615 17.0664 20.2803 17.3125 19.999 17.3125Z" fill="#595D6F"/>
<circle cx="5.24902" cy="5" r="4" fill="#F16670" stroke="white" stroke-width="2"/>
</svg>
