<svg width="21" height="19" viewBox="0 0 21 19" fill="none" xmlns="http://www.w3.org/2000/svg">
<path d="M18.8389 8.125C18.5225 3.90625 15.1826 0.601562 10.9639 0.25C10.999 0.285156 10.999 0.25 10.9639 0.25C10.6826 0.25 10.4365 0.53125 10.4365 0.847656V8.6875H18.2764C18.5928 8.6875 18.874 8.44141 18.8389 8.125ZM12.124 7V2.14844C14.4795 2.74609 16.3779 4.64453 16.9756 7H12.124ZM8.74902 10.375V2.04297C8.74902 1.72656 8.46777 1.48047 8.18652 1.48047C8.15137 1.48047 8.11621 1.48047 8.11621 1.48047C3.93262 2.07812 0.698242 5.69922 0.90918 10.1289C1.01465 14.5938 4.84668 18.25 9.31152 18.25C9.34668 18.25 9.34668 18.25 9.38184 18.25C11.1748 18.25 12.792 17.6875 14.1631 16.7031C14.4443 16.5273 14.4443 16.1055 14.1982 15.8594L8.74902 10.375ZM9.38184 16.5625H9.31152C5.76074 16.5625 2.66699 13.6094 2.59668 10.0586C2.45605 7.07031 4.31934 4.43359 7.06152 3.48438V11.0781L11.9834 16.0352C11.1748 16.3867 10.2959 16.5625 9.38184 16.5625ZM19.4014 10.375H11.0693L16.5889 15.9297C16.6943 16.0703 16.8701 16.1055 17.0107 16.1055C17.1514 16.1055 17.2568 16.0703 17.3623 15.9648C18.7334 14.6992 19.6826 12.9766 19.9287 11.0078C20.0342 10.6914 19.7529 10.375 19.4014 10.375Z" fill="#595D6F"/>
</svg>
