<svg width="24" height="26" viewBox="0 0 24 26" fill="none" xmlns="http://www.w3.org/2000/svg">
<path d="M9.74902 3.25C4.68652 3.25 0.889648 7.46875 0.749023 12.25V14.1484C0.749023 15.5898 1.87402 16.75 3.31543 16.75H3.94824C4.65137 16.75 5.24902 16.1875 5.24902 15.4492V10.7734C5.24902 10.0352 4.65137 9.4375 3.94824 9.4375H3.31543C3.1748 9.4375 3.06934 9.47266 2.96387 9.50781C4.05371 6.83594 6.69043 4.97266 9.74902 4.97266C12.7725 4.97266 15.4092 6.83594 16.499 9.47266C16.3936 9.47266 16.2881 9.4375 16.1475 9.4375H15.5146C14.8115 9.4375 14.249 10.0352 14.249 10.7734V15.4492C14.249 16.1875 14.8115 16.75 15.5146 16.75H16.1475C16.4639 16.75 16.7803 16.7148 17.0615 16.6094V17.3125C17.0615 18.1211 16.4287 18.7188 15.6553 18.7188H11.7529C11.4717 18.2266 10.9092 17.875 10.3115 17.875H9.18652C8.2373 17.875 7.49902 18.6484 7.49902 19.5625C7.49902 20.5117 8.2373 21.25 9.15137 21.25H10.3115C10.9092 21.25 11.4717 20.9336 11.7529 20.4062H15.6553C17.3428 20.4062 18.749 19.0352 18.749 17.3125V12.25C18.5732 7.46875 14.7764 3.25 9.74902 3.25ZM3.31543 11.125H3.56152V15.0625H3.31543C2.82324 15.0625 2.43652 14.6406 2.43652 14.1484V12.25C2.43652 12.1797 2.43652 12.1094 2.43652 12.0039C2.47168 11.5117 2.82324 11.125 3.31543 11.125ZM16.1475 15.0625H15.9365V11.125H16.1475C16.6396 11.125 16.9912 11.5469 17.0264 12.0039C17.0264 12.1094 17.0615 12.1797 17.0615 12.25V14.1484C17.0615 14.6406 16.6396 15.0625 16.1475 15.0625Z" fill="#595D6F"/>
<circle cx="18.749" cy="20.5" r="4" fill="#7AC362" stroke="white" stroke-width="2"/>
</svg>
