<svg width="24" height="25" viewBox="0 0 24 25" fill="none" xmlns="http://www.w3.org/2000/svg">
<path d="M12.8428 7.46875H22.4053C22.8623 7.46875 23.249 7.11719 23.249 6.625C23.249 6.16797 22.8623 5.78125 22.4053 5.78125H12.8428C12.3506 5.78125 11.999 6.16797 11.999 6.625C11.999 7.11719 12.3506 7.46875 12.8428 7.46875ZM6.93652 16.75C6.30371 16.75 5.81152 17.2773 5.81152 17.875C5.81152 18.5078 6.30371 19 6.93652 19C7.53418 19 8.06152 18.5078 8.06152 17.875C8.06152 17.2773 7.53418 16.75 6.93652 16.75ZM22.4053 11.4062H12.8428C12.3506 11.4062 11.999 11.793 11.999 12.25C11.999 12.7422 12.3506 13.0938 12.8428 13.0938H22.4053C22.8623 13.0938 23.249 12.7422 23.249 12.25C23.249 11.793 22.8623 11.4062 22.4053 11.4062ZM22.4053 17.0312H11.7178C11.2256 17.0312 10.874 17.418 10.874 17.875C10.874 18.3672 11.2256 18.7188 11.7178 18.7188H22.4053C22.8623 18.7188 23.249 18.3672 23.249 17.875C23.249 17.418 22.8623 17.0312 22.4053 17.0312ZM9.39746 4.65625L7.46387 6.83594L6.65527 6.02734C6.33887 5.71094 5.81152 5.71094 5.49512 6.02734C5.14355 6.37891 5.14355 6.90625 5.49512 7.22266L6.90137 8.62891C7.04199 8.80469 7.25293 8.875 7.46387 8.875C7.70996 8.875 7.9209 8.76953 8.06152 8.62891L10.5928 5.81641C10.9092 5.46484 10.9092 4.9375 10.5576 4.62109C10.2412 4.30469 9.71387 4.33984 9.39746 4.65625ZM9.39746 10.2812L7.46387 12.4609L6.65527 11.6523C6.33887 11.3359 5.81152 11.3359 5.49512 11.6523C5.14355 12.0039 5.14355 12.5312 5.49512 12.8477L6.90137 14.2539C7.04199 14.4297 7.25293 14.5 7.46387 14.5C7.70996 14.5 7.9209 14.3945 8.06152 14.2539L10.5928 11.4414C10.9092 11.0898 10.9092 10.5625 10.5576 10.2461C10.2412 9.92969 9.71387 9.96484 9.39746 10.2812Z" fill="#595D6F"/>
<circle cx="5.75" cy="5" r="4" fill="#F16670" stroke="white" stroke-width="2"/>
</svg>
