<svg width="20" height="25" viewBox="0 0 20 25" fill="none" xmlns="http://www.w3.org/2000/svg">
<path d="M12.834 13.9375H9.45898C6.01367 13.9375 3.27148 16.7148 3.27148 20.125C3.27148 20.7578 3.76367 21.25 4.39648 21.25H17.8965C18.4941 21.25 19.0215 20.7578 19.0215 20.125C19.0215 16.7148 16.2441 13.9375 12.834 13.9375ZM4.95898 19.5625C5.24023 17.3477 7.13867 15.625 9.45898 15.625H12.834C15.1191 15.625 17.0176 17.3477 17.2988 19.5625H4.95898ZM11.1465 12.25C13.6074 12.25 15.6465 10.2461 15.6465 7.75C15.6465 5.28906 13.6074 3.25 11.1465 3.25C8.65039 3.25 6.64648 5.28906 6.64648 7.75C6.64648 10.2461 8.65039 12.25 11.1465 12.25ZM11.1465 4.9375C12.6934 4.9375 13.959 6.20312 13.959 7.75C13.959 9.33203 12.6934 10.5625 11.1465 10.5625C9.56445 10.5625 8.33398 9.33203 8.33398 7.75C8.33398 6.20312 9.56445 4.9375 11.1465 4.9375Z" fill="#595D6F"/>
<circle cx="5.24902" cy="5" r="4" fill="#F16670" stroke="white" stroke-width="2"/>
</svg>
